<svg width="25" height="25" viewBox="0 0 25 25" fill="none" xmlns="http://www.w3.org/2000/svg">
<path d="M0 22.6562C0 23.9502 1.19978 25 2.67857 25H22.3214C23.8002 25 25 23.9502 25 22.6562V9.375H0V22.6562ZM17.8571 13.0859C17.8571 12.7637 18.1585 12.5 18.5268 12.5H20.7589C21.1272 12.5 21.4286 12.7637 21.4286 13.0859V15.0391C21.4286 15.3613 21.1272 15.625 20.7589 15.625H18.5268C18.1585 15.625 17.8571 15.3613 17.8571 15.0391V13.0859ZM17.8571 19.3359C17.8571 19.0137 18.1585 18.75 18.5268 18.75H20.7589C21.1272 18.75 21.4286 19.0137 21.4286 19.3359V21.2891C21.4286 21.6113 21.1272 21.875 20.7589 21.875H18.5268C18.1585 21.875 17.8571 21.6113 17.8571 21.2891V19.3359ZM10.7143 13.0859C10.7143 12.7637 11.0156 12.5 11.3839 12.5H13.6161C13.9844 12.5 14.2857 12.7637 14.2857 13.0859V15.0391C14.2857 15.3613 13.9844 15.625 13.6161 15.625H11.3839C11.0156 15.625 10.7143 15.3613 10.7143 15.0391V13.0859ZM10.7143 19.3359C10.7143 19.0137 11.0156 18.75 11.3839 18.75H13.6161C13.9844 18.75 14.2857 19.0137 14.2857 19.3359V21.2891C14.2857 21.6113 13.9844 21.875 13.6161 21.875H11.3839C11.0156 21.875 10.7143 21.6113 10.7143 21.2891V19.3359ZM3.57143 13.0859C3.57143 12.7637 3.87277 12.5 4.24107 12.5H6.47321C6.84152 12.5 7.14286 12.7637 7.14286 13.0859V15.0391C7.14286 15.3613 6.84152 15.625 6.47321 15.625H4.24107C3.87277 15.625 3.57143 15.3613 3.57143 15.0391V13.0859ZM3.57143 19.3359C3.57143 19.0137 3.87277 18.75 4.24107 18.75H6.47321C6.84152 18.75 7.14286 19.0137 7.14286 19.3359V21.2891C7.14286 21.6113 6.84152 21.875 6.47321 21.875H4.24107C3.87277 21.875 3.57143 21.6113 3.57143 21.2891V19.3359ZM22.3214 3.125H19.6429V0.78125C19.6429 0.351562 19.2411 0 18.75 0H16.9643C16.4732 0 16.0714 0.351562 16.0714 0.78125V3.125H8.92857V0.78125C8.92857 0.351562 8.52679 0 8.03571 0H6.25C5.75893 0 5.35714 0.351562 5.35714 0.78125V3.125H2.67857C1.19978 3.125 0 4.1748 0 5.46875V7.8125H25V5.46875C25 4.1748 23.8002 3.125 22.3214 3.125Z" fill="white"/>
</svg>
